<?xml version="1.0" encoding="UTF-8"?>
<svg id="girl_inside" xmlns="http://www.w3.org/2000/svg" xmlns:xlink="http://www.w3.org/1999/xlink" viewBox="0 0 675 735">
  <defs>
    <style>
      .cls-1 {
        fill: none;
      }

      .cls-2 {
        clip-path: url(#clippath);
      }

      .cls-3 {
        fill: #fff;
      }

      .cls-4, .cls-5 {
        fill: #f5a9b8;
      }

      .cls-6 {
        fill: #fefefd;
      }

      .cls-7 {
        fill: #5bcefa;
      }

      .cls-5 {
        filter: url(#drop-shadow-1);
      }
    </style>
    <clipPath id="clippath">
      <rect class="cls-1" width="675" height="735" rx="51.02" ry="51.02"/>
    </clipPath>
    <filter id="drop-shadow-1" filterUnits="userSpaceOnUse">
      <feOffset dx="0" dy="0"/>
      <feGaussianBlur result="blur" stdDeviation="14.17"/>
      <feFlood flood-color="#000" flood-opacity=".75"/>
      <feComposite in2="blur" operator="in"/>
      <feComposite in="SourceGraphic"/>
    </filter>
  </defs>
  <g id="girl_inside_1">
    <g class="cls-2">
      <g>
        <g>
          <rect class="cls-7" x=".06" width="675" height="32.97"/>
          <rect class="cls-4" x=".06" y="32.97" width="675" height="32.98"/>
          <rect class="cls-3" x=".06" y="65.95" width="675" height="32.98"/>
          <rect class="cls-7" x=".06" y="131.9" width="675" height="32.97"/>
          <rect class="cls-4" x="-.06" y="98.93" width="675" height="32.98"/>
        </g>
        <polygon class="cls-5" points="294.25 80.17 147.83 164.88 0 164.88 0 735 675 735 675 164.88 675 80.17 294.25 80.17"/>
        <g>
          <path class="cls-6" d="M189.72,228.06c69.63-41.6,150.85-62.53,231.76-63.02,32.13,.35,64.49,4.15,95.03,14.47,22.99,7.63,45.05,19.42,61.99,36.98,17.99,17.64,27.66,42.73,28.22,67.74,1.64,31.64-12,62.88-33.88,85.36-12.86,13.58-28.55,24.89-46.29,31.09-.08-9.76-.11-19.53-.02-29.3,13.87-8.72,26.69-19.52,35.91-33.19,14.86-20.86,21.27-48.32,13.97-73.24-3.95-14.02-11.45-27.06-21.92-37.22-15.2-16.2-35.97-25.64-56.75-32.49-23.96-7.36-49.08-10.06-74.04-11.3-46.37-1.48-92.66,5.61-137.37,17.6-33.32,9.06-65.79,21.4-96.56,37.09-.03-3.54-.05-7.06-.07-10.59Z"/>
          <path class="cls-6" d="M308.22,228c10.25,0,20.5,0,30.75,0,0,9.75,0,19.5,0,29.25h-30.75c0-9.76,0-19.51,0-29.25Z"/>
          <path class="cls-6" d="M454.02,229.85c7.28-.75,14.64-.71,21.92,0,1.4,.22,3.3,.7,3.53,2.38,.73,5.04,.52,10.18,.59,15.27-.19,50.01-.05,100.03-.05,150.04,.22,2.63-1.2,6-4.35,5.49-14.05-1.82-25.49-15.25-24.86-29.5-.26-45.02,.08-90.04-.16-135.05,.04-2.72-.53-8.02,3.37-8.62Z"/>
          <path class="cls-6" d="M99.37,301.2c9.04-13.22,20.5-24.53,32.27-35.3-.34,4.84,.69,9.94-.47,14.66-11.92,14.57-22.58,30.49-28.76,48.41-7.57,21.33-10.88,45.07-5.19,67.25,4,16.97,13.43,32.51,26.27,44.24,16.79,15.56,38.4,24.51,60.16,30.67,31.06,8.13,63.33,10.14,95.32,10.32,27.22-.67,54.5-2.32,81.34-7.05,37.29-6.47,74.02-16.42,109.22-30.37,16.19-6.49,32.09-13.79,47.17-22.59,.05,13.64,.11,27.28-.12,40.92-39.36,20.83-82.31,34.08-125.76,43.25-34.2,7.05-69.04,10.95-103.96,11.51-30.54,.69-61.31-1.65-91.1-8.66-28.49-6.56-56.59-17.52-79.51-36.03-14.21-11.03-25.6-25.6-33.07-41.95-7.5-16.86-9.98-35.43-10.25-53.74,.56-27.17,10.56-53.65,26.43-75.55Z"/>
          <path class="cls-6" d="M194.8,280.35c9.58-5.41,20.78-7.1,31.65-7.27,17-.29,34.01,0,51.02-.07-.02,43.75,.02,87.5,0,131.26-.1,11.87-2.66,24.85-11.76,33.23-8.28,8.15-20.26,10.12-31.32,11.3-18.38,1.02-36.79,.23-55.17,.45v-23.99c17.51-.16,35.03,.25,52.53-.05,4.69-.31,10.92-.4,13.45-5.22,3.03-4.36,2.51-9.96,3.24-14.98-13.79-.59-27.99,1.82-41.43-2.27-11.45-2.65-22.04-9.94-27.62-20.4-6.5-10.73-7.37-23.66-8.26-35.86-.38-16.34-.55-33.89,7.37-48.72,3.52-7.28,9.64-13,16.31-17.41Zm25.4,17.15c-6.99,.96-13.5,5.68-16.19,12.27-4.35,9.34-2.81,20.03-3.17,29.98,.32,10.21-.92,21.21,3.98,30.62,3.12,6.56,10.13,10.05,17.1,10.58,8.76,.32,17.52,.05,26.28,.03,.02-28,.02-55.99,0-83.99-9.33,0-18.7-.36-28.01,.5Z"/>
          <path class="cls-6" d="M391.78,274.1c12.02-2.09,24.31-.86,36.45-1.08v26.22c-9.75,.02-19.5,0-29.24,.02-.02,34.75,0,69.49-.02,104.25-9.75-.01-19.49,0-29.24,0,.07-33.76-.15-67.52,.05-101.28-.38-13.03,9.18-25.54,22.01-28.12Z"/>
          <path class="cls-6" d="M308.98,274.49c9.74,0,19.49,0,29.24,0,0,43,.02,86,0,129.01-9.75-.01-19.49,0-29.24,0,0-43.01-.02-86,0-129.01Z"/>
          <path class="cls-6" d="M191.41,567.81c4.61,0,9.22-.04,13.83,.1,.08,4.6,.12,9.23,.07,13.86-5.12,.1-10.23,.23-15.35,.08-.11-4.16-.17-8.31-.22-12.45,.56-.54,1.11-1.07,1.67-1.6Z"/>
          <path class="cls-6" d="M336.89,567.61c5.03,.29,10.16,0,15.11,1.07-.28,4.43-.55,8.9-.89,13.35-4.94-.05-9.87-.02-14.8-.2-.28-4.16-.53-8.31-.81-12.45,.46-.6,.92-1.19,1.39-1.77Z"/>
          <path class="cls-6" d="M399.73,568.26c5.03,.33,10.15,.14,15.11,1.14-.33,25.21,.07,50.42-.13,75.63-.24,1.87,.44,5.88-2.3,6.6-9.83,2.56-20.13,3.72-30.27,2.7-11.71-1.21-20.68-12.67-19.94-24.3-.19-11.53-1.75-25.76,7.7-34.32,8.23-7.05,19.74-6.04,29.8-5.49,0-7.33,0-14.64,.02-21.96Zm-15.44,34.36c-5.09,1.54-7.46,7.41-7.08,12.36,.38,8.11-1.95,17.53,3.14,24.65,5.44,4.6,12.77,2.57,19.18,2.21,.32-13,.22-26.01,.18-39.01-5.1-.65-10.3-.71-15.41-.21Z"/>
          <path class="cls-6" d="M478.85,570.25c4.37-.13,8.75-.22,13.13-.29,0,.99-.02,1.98-.02,2.98-1.3,.03-3.9,.09-5.2,.12-.04,4.72-.02,9.46-.05,14.18-.99,0-1.97,0-2.96,0-.05-4.7-.03-9.38-.08-14.06-1.79-.26-3.56-.53-5.32-.81l.48-2.13Z"/>
          <path class="cls-6" d="M495.34,570.3c.96-.04,2.87-.11,3.83-.16,2.27,3.8,3.26,8.18,5.17,12.14,1.76-3.72,2.58-7.91,4.91-11.33,1.04-.29,3.12-.86,4.16-1.14,.25,5.8,.33,11.62,.37,17.44-1,0-1.99,0-2.97,0-.09-4.33-.16-8.66-.26-12.97-1.94,4.21-3.6,8.55-5.24,12.89-.48,0-1.44,0-1.92,0-1.78-4.27-3.38-8.63-5.11-12.92-.15,4.32-.25,8.65-.33,13-1.02,0-2.04,0-3.05,0,.14-5.65-.28-11.35,.45-16.95Z"/>
          <path class="cls-6" d="M218.19,593.82c13.05-3.73,27.56-6.47,40.62-1.43,8.12,3.17,11.13,12.36,10.98,20.37,.04,13.77,1.27,27.75-.75,41.43-4.62-.14-9.23-.23-13.84-.39-.57-13.91,.27-27.83-.5-41.72-.29-3.12-1.07-6.91-4.22-8.35-5.55-2.18-11.58-1.1-17.27-.15-.04,16.24,.08,32.48-.1,48.74-.54,.54-1.07,1.09-1.6,1.65-4.37-.04-8.72-.05-13.07-.13-.5-20-.14-40-.26-60.01Z"/>
          <path class="cls-6" d="M296.93,590.05c8.07-.65,16.58-.19,24.08,3.18,4.69,1.91,2.31,8.17,3.15,12.16-9.17-2-18.5-3.85-27.93-2.69-.29,1.84-.58,3.68-.87,5.53,7.82,5.32,16.28,9.66,23.87,15.32,8.27,6.35,7.91,20,.16,26.57-11.26,7.52-26.43,5.48-38.19,.08,.05-3.74,.08-7.43,.26-11.15,9.18,2.08,18.59,4.83,28.03,2.56-.2-2.34-.37-4.7-.71-7-6.97-6.32-16.19-9.47-23.18-15.75-6.86-6.22-7.29-18.27-.45-24.68,3.39-2.59,7.55-3.93,11.8-4.14Z"/>
          <path class="cls-6" d="M434.07,595.36c11.27-8.27,29.01-7.79,38.55,2.98,6.55,8.1,6.74,19.27,5.79,29.17-12.97,.37-25.93,.15-38.89,.35,1.26,5.21,2.77,12.12,9.1,13.18,9.17,2.07,18.55-.7,27.59-2.2-.02,3.51,0,7.07,0,10.6-11,5.11-24.26,7.66-35.79,2.89-9.77-3.45-15.43-13.78-15.23-23.82-.65-11.4-.61-25.09,8.89-33.17Zm12.87,8.33c-5.1,1.84-6.26,8.07-7.25,12.74,8.05,.08,16.1,.08,24.14,.04-.73-3.66-.64-8.15-3.87-10.7-3.26-3.66-8.75-3.21-13.02-2.08Z"/>
          <path class="cls-6" d="M190.47,590.84c4.44-.32,8.89-.5,13.34-.62,.51,.57,1.03,1.15,1.55,1.73-.02,20.69,.63,41.4-.4,62.08-4.76-.09-9.51-.05-14.26-.21-.49-20.99-.16-41.99-.23-62.98Z"/>
          <path class="cls-6" d="M337.67,590.24c4.42,.09,8.86,.21,13.28,.54-.05,21.05,.22,42.1-.16,63.16-4.99-.23-10.02,.04-14.95-.81,.26-20.4,0-40.81,.2-61.21,.54-.56,1.08-1.12,1.63-1.68Z"/>
        </g>
      </g>
    </g>
  </g>
</svg>